<svg id="Layer_1" data-name="Layer 1" xmlns="http://www.w3.org/2000/svg" viewBox="0 0 373.29 319.75"><defs><style>.cls-1{fill:#fff;}</style></defs><title>arrow_icon_white</title><path class="cls-1" d="M373.29,163.52c-1.66,8.36-6.87,14.39-12.72,20.22Q297.19,246.89,234,310.25c-8.36,8.37-17.94,11.72-29.46,8-17-5.52-23.43-27.3-12.24-41.2a64.68,64.68,0,0,1,4.62-5.15q40.69-40.75,81.44-81.44a25.39,25.39,0,0,1,3.52-2.5l-0.71-1.37h-4.48q-123.37,0-246.75,0c-9.91,0-18.65-2.53-24.48-10.95C3,172.07,1.78,167.59,0,163.52v-7.29c1.58-5.92,3.81-11.48,8.47-15.77,6-5.52,13.19-7.3,21.11-7.3q66,0.06,131.94,0H282c-1.51-1.61-2.43-2.63-3.39-3.59q-41.22-41.25-82.47-82.47c-8.26-8.24-11.59-17.75-7.95-29.17C193.55,1,215.5-5.63,229.35,5.42A62.28,62.28,0,0,1,234.49,10q63,63,126.08,126c5.85,5.82,11.05,11.85,12.72,20.21v7.29Z"/></svg>